<?xml version="1.0" encoding="utf-8"?>
<svg version="1.1" xmlns:xlink="http://www.w3.org/1999/xlink" width="31px" height="29px" xmlns="http://www.w3.org/2000/svg">
  <g transform="matrix(1 0 0 1 -17 -14 )">
    <path d="M 8.40087890625 8.07583932853717  C 8.65315755208333 7.79186650679456  8.779296875 7.41227018385292  8.779296875 6.93705035971223  C 8.779296875 6.46183053557154  8.65315755208333 6.07933653077538  8.40087890625 5.78956834532374  C 8.14860026041667 5.4998001598721  7.81559244791667 5.35491606714628  7.40185546875 5.35491606714628  C 6.96793619791667 5.35491606714628  6.58447265625 5.50269784172662  6.25146484375 5.79826139088729  C 5.91845703125 6.09382494004796  5.751953125 6.47342126298961  5.751953125 6.93705035971223  C 5.751953125 7.38908872901679  5.91845703125 7.7628896882494  6.25146484375 8.05845323741007  C 6.58447265625 8.35401678657074  6.96793619791667 8.50179856115108  7.40185546875 8.50179856115108  C 7.81559244791667 8.50179856115108  8.14860026041667 8.35981215027977  8.40087890625 8.07583932853717  Z M 19.639892578125 16.6384892086331  C 19.897216796875 16.3834932054356  20.02587890625 16.087929656275  20.02587890625 15.7517985611511  C 20.02587890625 15.4272581934452  19.897216796875 15.1374900079936  19.639892578125 14.8824940047962  C 19.382568359375 14.6274980015987  19.0520833333333 14.5  18.6484375 14.5  C 18.3759765625 14.5  18.126220703125 14.6303956834532  17.899169921875 14.8911870503597  C 17.672119140625 15.1519784172662  17.55859375 15.4388489208633  17.55859375 15.7517985611511  C 17.55859375 16.0763389288569  17.672119140625 16.3690047961631  17.899169921875 16.6297961630695  C 18.126220703125 16.890587529976  18.3759765625 17.0209832134293  18.6484375 17.0209832134293  C 19.0520833333333 17.0209832134293  19.382568359375 16.8934852118305  19.639892578125 16.6384892086331  Z M 16.082763671875 8.07583932853717  C 16.3299967447917 7.79186650679456  16.45361328125 7.41227018385292  16.45361328125 6.93705035971223  C 16.45361328125 6.46183053557154  16.3299967447917 6.07933653077538  16.082763671875 5.78956834532374  C 15.8355305989583 5.4998001598721  15.5050455729167 5.35491606714628  15.09130859375 5.35491606714628  C 14.6573893229167 5.35491606714628  14.27392578125 5.50269784172662  13.94091796875 5.79826139088729  C 13.60791015625 6.09382494004796  13.44140625 6.47342126298961  13.44140625 6.93705035971223  C 13.44140625 7.38908872901679  13.60791015625 7.7628896882494  13.94091796875 8.05845323741007  C 14.27392578125 8.35401678657074  14.6573893229167 8.50179856115108  15.09130859375 8.50179856115108  C 15.5050455729167 8.50179856115108  15.8355305989583 8.35981215027977  16.082763671875 8.07583932853717  Z M 25.671875 16.6384892086331  C 25.9342447916667 16.3834932054356  26.0654296875 16.087929656275  26.0654296875 15.7517985611511  C 26.0654296875 15.4272581934452  25.9342447916667 15.1374900079936  25.671875 14.8824940047962  C 25.4095052083333 14.6274980015987  25.08154296875 14.5  24.68798828125 14.5  C 24.41552734375 14.5  24.165771484375 14.6303956834532  23.938720703125 14.8911870503597  C 23.711669921875 15.1519784172662  23.59814453125 15.4388489208633  23.59814453125 15.7517985611511  C 23.59814453125 16.0763389288569  23.711669921875 16.3690047961631  23.938720703125 16.6297961630695  C 24.165771484375 16.890587529976  24.41552734375 17.0209832134293  24.68798828125 17.0209832134293  C 25.08154296875 17.0209832134293  25.4095052083333 16.8934852118305  25.671875 16.6384892086331  Z M 19.972900390625 4.32044364508393  C 21.0375162760417 5.67076338928857  21.7262369791667 7.18045563549161  22.0390625 8.84952038369305  C 21.7262369791667 8.80315747402078  21.373046875 8.77997601918465  20.9794921875 8.77997601918465  C 19.2740885416667 8.77997601918465  17.7049153645833 9.22621902478017  16.27197265625 10.1187050359712  C 14.8390299479167 11.0111910471623  13.7113444010417 12.2195243804956  12.888916015625 13.7437050359712  C 12.0664876302083 15.2678856914468  11.6552734375 16.9340527577938  11.6552734375 18.742206235012  C 11.6552734375 19.6462829736211  11.7713216145833 20.5271782573941  12.00341796875 21.3848920863309  C 11.6502278645833 21.4196642685851  11.30712890625 21.4370503597122  10.97412109375 21.4370503597122  C 10.7117513020833 21.4370503597122  10.45947265625 21.4283573141487  10.21728515625 21.4109712230216  C 9.97509765625 21.3935851318945  9.69759114583333 21.3559152677858  9.384765625 21.2979616306954  C 9.07194010416667 21.2400079936051  8.847412109375 21.1994404476419  8.711181640625 21.1762589928058  C 8.574951171875 21.1530775379696  8.29996744791667 21.0922262190248  7.88623046875 20.9937050359712  C 7.47249348958333 20.8951838529177  7.22021484375 20.8343325339728  7.12939453125 20.8111510791367  L 3.2998046875 23.0191846522782  L 4.3896484375 19.2290167865707  C 1.46321614583333 16.8760991207034  0 14.0363709032774  0 10.7098321342926  C 0 8.75099920063949  0.491943359375 6.94864108713029  1.475830078125 5.30275779376499  C 2.459716796875 3.65687450039968  3.791748046875 2.36161071143085  5.471923828125 1.41696642685851  C 7.152099609375 0.472322142286169  8.98616536458333 0  10.97412109375 0  C 12.7501627604167 0  14.4278157552083 0.382494004796164  16.007080078125 1.14748201438849  C 17.5863444010417 1.91247002398082  18.9082845052083 2.9701239008793  19.972900390625 4.32044364508393  Z M 29.705810546875 14.0218824940048  C 30.568603515625 15.4301558752998  31 16.9572342126299  31 18.6031175059952  C 31 19.9592326139089  30.6543782552083 21.2544964028777  29.963134765625 22.4889088729017  C 29.2718912760417 23.7233213429257  28.3359375 24.8447242206235  27.1552734375 25.8531175059952  L 27.98779296875 29  L 24.9755859375 27.1049160671463  C 23.4619140625 27.5337729816147  22.3619791666667 27.7482014388489  21.67578125 27.7482014388489  C 19.9703776041667 27.7482014388489  18.4012044270833 27.3396282973621  16.96826171875 26.5224820143885  C 15.5353190104167 25.7053357314149  14.4076334635417 24.5955235811351  13.585205078125 23.1930455635492  C 12.7627766927083 21.7905675459632  12.3515625 20.2605915267786  12.3515625 18.6031175059952  C 12.3515625 16.9456434852118  12.7627766927083 15.4156674660272  13.585205078125 14.0131894484412  C 14.4076334635417 12.6107114308553  15.5353190104167 11.5008992805755  16.96826171875 10.6837529976019  C 18.4012044270833 9.8666067146283  19.9703776041667 9.45803357314149  21.67578125 9.45803357314149  C 23.3004557291667 9.45803357314149  24.8292643229167 9.8666067146283  26.26220703125 10.6837529976019  C 27.6951497395833 11.5008992805755  28.843017578125 12.6136091127098  29.705810546875 14.0218824940048  Z " fill-rule="nonzero" fill="#fafafa" stroke="none" transform="matrix(1 0 0 1 17 14 )" />
  </g>
</svg>